<?xml version="1.0" encoding="UTF-8"?><svg id="Layer_1" xmlns="http://www.w3.org/2000/svg" viewBox="0 0 427.14 344.05"><defs><style>.cls-1{fill:#231f20;font-family:MicrosoftSansSerif, 'Microsoft Sans Serif';font-size:16px;}.cls-2{fill:#f1f2f2;}.cls-2,.cls-3,.cls-4{stroke:#231f20;stroke-miterlimit:10;}.cls-3{fill:#e6e7e8;}.cls-4{fill:none;}</style></defs><rect class="cls-2" x=".5" y=".5" width="426.14" height="44.35"/><text class="cls-1" transform="translate(175.18 26.68)"><tspan x="0" y="0">application</tspan></text><rect class="cls-2" x="294.44" y="83.71" width="132.2" height="44.35"/><text class="cls-1" transform="translate(311.72 109.92)"><tspan x="0" y="0">datagram API</tspan></text><rect class="cls-2" x="147.47" y="83.71" width="132.2" height="44.35"/><text class="cls-1" transform="translate(174.1 109.92)"><tspan x="0" y="0">stream API</tspan></text><rect class="cls-2" x=".5" y="83.71" width="132.2" height="44.35"/><text class="cls-1" transform="translate(32.46 101.04)"><tspan x="0" y="0">DNS stub</tspan><tspan x="5.64" y="19.2">resolver</tspan></text><rect class="cls-2" x="147.47" y="166.93" width="279.17" height="93.41"/><rect class="cls-3" x="306.1" y="177.92" width="108.87" height="44.35"/><text class="cls-1" transform="translate(343.65 204.13)"><tspan x="0" y="0">UDP</tspan></text><rect class="cls-3" x="159.13" y="177.92" width="108.87" height="44.35"/><text class="cls-1" transform="translate(197.57 204.13)"><tspan x="0" y="0">TCP</tspan></text><text class="cls-1" transform="translate(203.56 245.82)"><tspan x="0" y="0">kernel networking stack</tspan></text><line class="cls-4" x1="66.6" y1="83.71" x2="66.6" y2="44.85"/><line class="cls-4" x1="213.57" y1="83.71" x2="213.57" y2="44.85"/><line class="cls-4" x1="360.54" y1="83.71" x2="360.54" y2="44.85"/><line class="cls-4" x1="213.57" y1="177.92" x2="213.57" y2="128.07"/><line class="cls-4" x1="360.54" y1="177.92" x2="360.54" y2="128.07"/><rect class="cls-2" x=".5" y="299.19" width="426.14" height="44.35"/><text class="cls-1" transform="translate(133.19 325.37)"><tspan x="0" y="0">network layer interface</tspan></text><line class="cls-4" x1="287.05" y1="299.19" x2="287.05" y2="260.33"/></svg>