<?xml version="1.0" encoding="UTF-8"?><svg id="Layer_1" xmlns="http://www.w3.org/2000/svg" viewBox="0 0 427.14 344.05"><defs><style>.cls-1{font-size:16px;}.cls-1,.cls-2{fill:#231f20;font-family:MicrosoftSansSerif, 'Microsoft Sans Serif';}.cls-2{font-size:13.38px;}.cls-3{fill:#f1f2f2;}.cls-3,.cls-4,.cls-5{stroke:#231f20;stroke-miterlimit:10;}.cls-4{fill:#e6e7e8;}.cls-5{fill:none;}</style></defs><rect class="cls-3" x=".5" y=".5" width="426.14" height="44.35"/><text class="cls-1" transform="translate(175.18 26.68)"><tspan x="0" y="0">application</tspan></text><rect class="cls-3" x="117.78" y="83.71" width="191.59" height="44.35"/><text class="cls-1" transform="translate(135.47 109.92)"><tspan x="0" y="0">transport services API</tspan></text><line class="cls-5" x1="213.57" y1="83.71" x2="213.57" y2="44.85"/><rect class="cls-3" x=".5" y="299.19" width="426.14" height="44.35"/><text class="cls-1" transform="translate(133.19 325.37)"><tspan x="0" y="0">network layer interface</tspan></text><line class="cls-5" x1="213.57" y1="299.19" x2="213.57" y2="260.33"/><rect class="cls-3" x=".5" y="166.93" width="426.14" height="93.41"/><text class="cls-1" transform="translate(93.97 193.14)"><tspan x="0" y="0">transport services implementation</tspan></text><line class="cls-5" x1="213.57" y1="166.93" x2="213.57" y2="128.07"/><rect class="cls-4" x="216.99" y="208.17" width="40.89" height="37.1"/><text class="cls-2" transform="translate(218.48 231.09)"><tspan x="0" y="0">DCCP</tspan></text><rect class="cls-4" x="266.65" y="208.17" width="40.89" height="37.1"/><text class="cls-2" transform="translate(274.83 231.09)"><tspan x="0" y="0">TLS</tspan></text><rect class="cls-4" x="316.31" y="208.17" width="40.89" height="37.1"/><text class="cls-2" transform="translate(320.03 231.09)"><tspan x="0" y="0">QUIC</tspan></text><rect class="cls-4" x="18.36" y="208.18" width="40.89" height="37.1"/><text class="cls-2" transform="translate(24.68 231.1)"><tspan x="0" y="0">DNS</tspan></text><rect class="cls-4" x="68.02" y="208.18" width="40.89" height="37.1"/><text class="cls-2" transform="translate(74.34 231.1)"><tspan x="0" y="0">UDP</tspan></text><rect class="cls-4" x="117.68" y="208.18" width="40.89" height="37.1"/><text class="cls-2" transform="translate(124.74 231.1)"><tspan x="0" y="0">TCP</tspan></text><rect class="cls-4" x="167.34" y="208.18" width="40.89" height="37.1"/><text class="cls-2" transform="translate(169.94 231.1)"><tspan x="0" y="0">SCTP</tspan></text><rect class="cls-4" x="365.97" y="208.17" width="40.89" height="37.1"/><text class="cls-2" transform="translate(380.84 231.09)"><tspan x="0" y="0">...</tspan></text></svg>